<svg width="1230" height="400" viewBox="0 0 1230 400" fill="none" xmlns="http://www.w3.org/2000/svg">
<path d="M451.185 178.564C451.185 181.465 453.071 183.859 456.843 185.745C460.761 187.486 465.476 189.082 470.989 190.533C476.502 191.839 482.016 193.58 487.529 195.756C493.042 197.787 497.685 201.27 501.457 206.202C505.374 211.135 507.333 217.301 507.333 224.701C507.333 235.872 503.126 244.505 494.711 250.598C486.441 256.547 476.067 259.521 463.59 259.521C441.247 259.521 426.013 250.889 417.888 233.624L442.262 219.913C445.454 229.343 452.563 234.059 463.59 234.059C473.601 234.059 478.606 230.939 478.606 224.701C478.606 221.799 476.647 219.478 472.73 217.737C468.958 215.851 464.315 214.182 458.802 212.731C453.289 211.28 447.776 209.467 442.262 207.291C436.749 205.114 432.034 201.705 428.116 197.062C424.344 192.274 422.458 186.326 422.458 179.217C422.458 168.48 426.375 160.065 434.21 153.972C442.19 147.733 452.056 144.614 463.807 144.614C472.658 144.614 480.71 146.645 487.964 150.707C495.218 154.625 500.949 160.283 505.157 167.682L481.218 180.74C477.736 173.341 471.932 169.641 463.807 169.641C460.18 169.641 457.133 170.439 454.667 172.035C452.346 173.631 451.185 175.807 451.185 178.564Z" fill="#122861"/>
<path d="M575.695 259.521C559.301 259.521 545.59 254.008 534.564 242.982C523.682 231.955 518.242 218.317 518.242 202.067C518.242 185.818 523.682 172.18 534.564 161.153C545.59 150.127 559.301 144.614 575.695 144.614C586.287 144.614 595.935 147.153 604.64 152.231C613.345 157.309 619.946 164.128 624.444 172.688L600.287 186.834C598.111 182.336 594.774 178.781 590.276 176.17C585.924 173.558 580.991 172.252 575.478 172.252C567.063 172.252 560.099 175.082 554.585 180.74C549.072 186.253 546.316 193.362 546.316 202.067C546.316 210.628 549.072 217.737 554.585 223.395C560.099 228.908 567.063 231.665 575.478 231.665C581.136 231.665 586.141 230.432 590.494 227.965C594.992 225.354 598.329 221.799 600.505 217.301L624.879 231.23C620.091 239.79 613.345 246.681 604.64 251.904C595.935 256.982 586.287 259.521 575.695 259.521Z" fill="#122861"/>
<path d="M668.651 166.376C671.263 159.412 675.543 154.189 681.491 150.707C687.585 147.225 694.331 145.484 701.731 145.484V176.823C693.171 175.807 685.481 177.548 678.662 182.046C671.988 186.543 668.651 194.015 668.651 204.461V256.474H640.577V147.661H668.651V166.376Z" fill="#122861"/>
<path d="M796.81 147.661H824.884V256.474H796.81V243.634C788.395 254.226 776.571 259.521 761.337 259.521C746.828 259.521 734.351 254.008 723.905 242.982C713.604 231.81 708.453 218.172 708.453 202.067C708.453 185.963 713.604 172.398 723.905 161.371C734.351 150.2 746.828 144.614 761.337 144.614C776.571 144.614 788.395 149.909 796.81 160.501V147.661ZM745.015 224.266C750.673 229.924 757.855 232.753 766.56 232.753C775.265 232.753 782.447 229.924 788.105 224.266C793.909 218.462 796.81 211.063 796.81 202.067C796.81 193.072 793.909 185.745 788.105 180.087C782.447 174.284 775.265 171.382 766.56 171.382C757.855 171.382 750.673 174.284 745.015 180.087C739.357 185.745 736.527 193.072 736.527 202.067C736.527 211.063 739.357 218.462 745.015 224.266Z" fill="#122861"/>
<path d="M913.671 144.614C928.325 144.614 940.802 150.2 951.103 161.371C961.55 172.398 966.773 185.963 966.773 202.067C966.773 218.172 961.55 231.81 951.103 242.982C940.802 254.008 928.325 259.521 913.671 259.521C898.437 259.521 886.686 254.226 878.416 243.634V300H850.342V147.661H878.416V160.501C886.686 149.909 898.437 144.614 913.671 144.614ZM886.903 224.266C892.561 229.924 899.743 232.753 908.448 232.753C917.153 232.753 924.335 229.924 929.993 224.266C935.797 218.462 938.699 211.063 938.699 202.067C938.699 193.072 935.797 185.745 929.993 180.087C924.335 174.284 917.153 171.382 908.448 171.382C899.743 171.382 892.561 174.284 886.903 180.087C881.245 185.745 878.416 193.072 878.416 202.067C878.416 211.063 881.245 218.462 886.903 224.266Z" fill="#122861"/>
<path d="M1010.29 213.602C1014.07 227.24 1024.29 234.059 1040.98 234.059C1051.71 234.059 1059.84 230.432 1065.35 223.177L1087.99 236.235C1077.25 251.759 1061.44 259.521 1040.54 259.521C1022.55 259.521 1008.12 254.081 997.235 243.199C986.354 232.318 980.913 218.607 980.913 202.067C980.913 185.673 986.281 172.035 997.018 161.153C1007.75 150.127 1021.54 144.614 1038.37 144.614C1054.33 144.614 1067.46 150.127 1077.76 161.153C1088.2 172.18 1093.43 185.818 1093.43 202.067C1093.43 205.695 1093.06 209.539 1092.34 213.602H1010.29ZM1009.86 191.839H1065.35C1063.76 184.44 1060.42 178.926 1055.34 175.299C1050.41 171.672 1044.75 169.859 1038.37 169.859C1030.82 169.859 1024.58 171.817 1019.65 175.735C1014.72 179.507 1011.45 184.875 1009.86 191.839Z" fill="#122861"/>
<path d="M1126.95 134.603C1122.31 134.603 1118.25 132.934 1114.77 129.597C1111.43 126.115 1109.76 122.053 1109.76 117.41C1109.76 112.768 1111.43 108.705 1114.77 105.223C1118.25 101.741 1122.31 100 1126.95 100C1131.74 100 1135.8 101.741 1139.14 105.223C1142.62 108.705 1144.36 112.768 1144.36 117.41C1144.36 122.053 1142.62 126.115 1139.14 129.597C1135.8 132.934 1131.74 134.603 1126.95 134.603ZM1113.03 256.474V147.661H1141.1V256.474H1113.03Z" fill="#122861"/>
<path d="M1229.04 174.646H1204.44V219.913C1204.44 223.685 1205.39 226.442 1207.27 228.183C1209.16 229.924 1211.92 230.939 1215.54 231.23C1219.17 231.375 1223.67 231.302 1229.04 231.012V256.474C1209.74 258.651 1196.1 256.837 1188.12 251.034C1180.29 245.23 1176.37 234.857 1176.37 219.913V174.646H1157.44V147.661H1176.37V125.68L1204.44 117.193V147.661H1229.04V174.646Z" fill="#122861"/>
<path d="M198.837 228.569L0.427979 342.856L99.1598 400L297.896 285.399L198.837 228.569Z" fill="url(#paint0_linear_5_126)"/>
<path d="M205.192 0L22.9608 105.073L122.02 161.903L303.919 57.1389L205.192 0Z" fill="url(#paint1_linear_5_126)"/>
<path d="M3.60547 230.469L79.1542 274.285L177.891 217.142L3.60547 116.505V230.469Z" fill="url(#paint2_linear_5_126)"/>
<path d="M141.698 173.326L317.888 273.017V159.675L241.066 116.187L141.698 173.326Z" fill="url(#paint3_linear_5_126)"/>
<defs>
<linearGradient id="paint0_linear_5_126" x1="298.052" y1="324.428" x2="3.34041" y2="324.428" gradientUnits="userSpaceOnUse">
<stop stop-color="#5176FC"/>
<stop offset="0.504258" stop-color="#3D55AE"/>
<stop offset="1" stop-color="#5176FC"/>
</linearGradient>
<linearGradient id="paint1_linear_5_126" x1="304.066" y1="90.5308" x2="25.7116" y2="90.5308" gradientUnits="userSpaceOnUse">
<stop stop-color="#5176FC"/>
<stop offset="0.504258" stop-color="#3D55AE"/>
<stop offset="1" stop-color="#5176FC"/>
</linearGradient>
<linearGradient id="paint2_linear_5_126" x1="177.982" y1="204.731" x2="5.31185" y2="204.731" gradientUnits="userSpaceOnUse">
<stop stop-color="#5176FC"/>
<stop offset="0.504258" stop-color="#3D55AE"/>
<stop offset="1" stop-color="#5176FC"/>
</linearGradient>
<linearGradient id="paint3_linear_5_126" x1="317.98" y1="203.881" x2="143.423" y2="203.881" gradientUnits="userSpaceOnUse">
<stop stop-color="#5176FC"/>
<stop offset="0.504258" stop-color="#3D55AE"/>
<stop offset="1" stop-color="#5176FC"/>
</linearGradient>
</defs>
</svg>
